<?xml version="1.0" encoding="UTF-8" standalone="no"?>
<!DOCTYPE svg PUBLIC "-//W3C//DTD SVG 1.1//EN" "http://www.w3.org/Graphics/SVG/1.1/DTD/svg11.dtd">
<svg width="100%" height="100%" viewBox="0 0 1024 520" version="1.1" xmlns="http://www.w3.org/2000/svg" xmlns:xlink="http://www.w3.org/1999/xlink" xml:space="preserve" xmlns:serif="http://www.serif.com/" style="fill-rule:evenodd;clip-rule:evenodd;stroke-linejoin:round;stroke-miterlimit:2;">
    <g id="Artboard1" transform="matrix(1,0,0,0.869266,8.52651e-14,-220.03)">
        <rect x="-0" y="253.122" width="1024" height="597.716" style="fill:none;"/>
        <clipPath id="_clip1">
            <rect x="-0" y="253.122" width="1024" height="597.716"/>
        </clipPath>
        <g clip-path="url(#_clip1)">
            <g transform="matrix(1.51481,0,0,1.74263,-300.964,-323.024)">
                <g transform="matrix(1,0,0,1,693,343)">
                    <path d="M0,0C0.652,0.41 1.305,0.82 1.977,1.242C2.851,1.781 3.725,2.32 4.625,2.875C5.913,3.676 5.913,3.676 7.227,4.492C12.309,7.255 16.784,8.163 22.471,8.479C36.633,9.34 48.598,14.445 58.824,24.465C65.346,32.063 74,44.562 74,55C76.521,52.506 79.002,49.998 81.402,47.387C97.645,30.093 117.961,22.247 140.706,19.029C143.695,18.606 175.228,13.963 177.644,14.02C177.562,32.878 163.074,55.17 150.5,68.688C132.843,85.02 112.047,91.516 88.172,91.203C85,91 85,91 82.141,90.422C81.081,90.213 81.081,90.213 80,90C78.424,91.576 78.613,93.34 78.352,95.523C78.235,96.457 78.118,97.39 77.998,98.352C77.875,99.35 77.752,100.347 77.625,101.375C76.614,109.127 75.468,116.56 73,124C72.606,125.328 72.606,125.328 72.203,126.684C64.837,150.496 52.359,172.116 35,190C34.329,190.697 33.658,191.393 32.967,192.111C13.393,212.352 -8.653,230.481 -36,239C-36.422,238.543 -36.844,238.085 -37.278,237.614C-53.422,220.154 -53.422,220.154 -71.859,205.211C-74.258,203.522 -76.61,201.803 -78.953,200.039C-100.457,183.964 -124.081,170.97 -149.96,163.586C-151.754,163.071 -153.538,162.522 -155.32,161.969C-156.246,161.69 -157.171,161.412 -158.125,161.125C-158.87,160.901 -159.615,160.676 -160.383,160.445C-164.251,159.787 -168.086,159.914 -172,160C-171.372,160.286 -170.745,160.572 -170.098,160.867C-157.075,166.809 -144.057,172.758 -131.157,178.963C-129.748,179.641 -128.337,180.315 -126.925,180.986C-110.633,188.745 -95.424,198.167 -81,209C-80.439,209.417 -79.878,209.834 -79.3,210.263C-65.476,220.586 -50.634,232.549 -41,247C-40.875,250.187 -40.875,250.187 -41,253C-54.913,255.368 -68.454,256.507 -82.566,256.446C-85.565,256.437 -88.562,256.467 -91.561,256.498C-127.209,256.628 -159.985,244.521 -185.589,219.412C-201.687,203.308 -213.351,183.521 -223,163C-224.526,184.156 -211.734,203.101 -198.715,218.746C-196.528,221.219 -194.284,223.617 -192,226C-191.232,226.831 -190.463,227.663 -189.672,228.52C-160.588,259.057 -117.557,268.965 -77.009,269.956C-76.346,269.97 -75.683,269.985 -75,270C-77.621,272.621 -79.867,272.964 -83.438,273.938C-84.591,274.256 -85.745,274.574 -86.934,274.902C-87.906,275.161 -87.906,275.161 -88.899,275.424C-90.322,275.814 -91.738,276.229 -93.146,276.668C-119.688,284.617 -149.136,286.695 -176.688,286.688C-177.656,286.692 -178.624,286.697 -179.622,286.702C-230.692,286.797 -286.169,264.999 -322.88,229.165C-325.415,226.633 -327.937,224.091 -330.42,221.507C-330.975,220.935 -331.53,220.363 -332.102,219.773C-332.59,219.262 -333.078,218.751 -333.581,218.224C-335.103,216.755 -335.103,216.755 -338,216C-317.556,251.312 -267.433,271.602 -230.262,282.051C-226.923,282.934 -223.587,283.746 -220.217,284.499C-218.719,284.837 -217.224,285.192 -215.732,285.56C-187.161,292.493 -154.835,290.527 -126,286C-125.049,285.855 -124.097,285.711 -123.117,285.562C-108.835,283.342 -94.901,279.931 -81,276C-80.294,275.804 -79.589,275.607 -78.862,275.405C-73.799,274.041 -73.799,274.041 -69,272C-68.724,271.341 -68.448,270.683 -68.163,270.004C-67,268 -67,268 -64.928,267.242C-64.087,267.121 -63.246,267 -62.379,266.875C-61.448,266.728 -60.517,266.581 -59.558,266.429C-58.569,266.288 -57.581,266.146 -56.563,266C-43.265,264.392 -43.265,264.392 -32,258C-31.967,256.571 -31.984,255.14 -32.031,253.711C-31.801,251.269 -31.801,251.269 -31,249C-27.849,246.442 -24.249,245.116 -20.5,243.625C-18.387,242.702 -16.277,241.769 -14.172,240.828C-12.601,240.129 -12.601,240.129 -10.998,239.416C0.364,234.049 10.572,226.22 20,218C21.299,216.873 22.599,215.747 23.898,214.621C25.924,212.866 27.948,211.108 29.963,209.34C30.879,208.54 30.879,208.54 31.813,207.723C32.355,207.246 32.898,206.769 33.457,206.278C35,205 35,205 38,203C31.396,222.258 7.168,241.119 -9,253C-9.596,253.446 -10.192,253.891 -10.806,254.35C-31.72,269.882 -55.387,279.737 -79.813,288.25C-81.029,288.675 -82.245,289.1 -83.499,289.538C-95.058,293.499 -106.692,296.281 -118.688,298.563C-120.224,298.875 -120.224,298.875 -121.791,299.193C-142.027,303.033 -162.718,303.35 -183.25,303.25C-184.353,303.248 -185.456,303.245 -186.592,303.243C-208.594,303.186 -230.217,302.288 -252,299C-253.375,298.799 -253.375,298.799 -254.778,298.593C-311.505,290.167 -370.316,274.717 -415,237C-415.834,236.307 -415.834,236.307 -416.685,235.6C-418.546,234.053 -420.399,232.497 -422.25,230.938C-422.829,230.455 -423.408,229.972 -424.004,229.475C-427.587,226.422 -430.694,223.194 -433.687,219.561C-434.863,218.162 -436.145,216.855 -437.438,215.563C-450.05,202.95 -459.687,188.208 -467,172C-467.281,171.39 -467.561,170.781 -467.851,170.152C-477.943,148.137 -477.943,148.137 -477,138C-468.599,133.999 -476.291,131.768 -478.698,131.789C-483.899,119.878 -487.034,107.227 -483.125,94.051C-480.602,88.499 -477.503,84.719 -472,82C-469.688,81.188 -469.688,81.188 -467,81C-466.35,80.938 -465.701,80.876 -465.031,80.813C-437.283,79.333 -410.617,99.692 -388.879,114.404C-378.81,121.203 -368.676,127.953 -357.75,133.313C-357.121,133.633 -356.492,133.953 -355.844,134.283C-351.038,136.671 -346.121,138.41 -341,140C-342.042,139.345 -359.824,130.805 -360.897,130.131C-373.908,121.876 -371.374,123.258 -383.349,113.573C-411.464,99.467 -417.007,88.267 -447.189,77.788C-447.965,77.518 -448.833,77.797 -449.681,77.801C-451.683,77.813 -470.663,75.313 -472.665,75.333C-470.479,61.269 -454.386,46.936 -443.399,38.817C-434.122,32.145 -424.371,26.768 -414,22C-413.096,21.578 -412.193,21.157 -411.262,20.723C-405.112,18.055 -398.716,16.554 -392.126,15.381C-390.591,15.106 -389.061,14.801 -387.536,14.479C-376.868,12.473 -366.145,12.699 -355.328,12.739C-351.969,12.75 -348.611,12.739 -345.252,12.727C-327.836,12.715 -310.673,13.719 -293.559,17.102C-292.83,17.245 -292.102,17.388 -291.351,17.536C-290.575,17.689 -289.799,17.842 -289,18C-288.146,18.163 -287.291,18.327 -286.411,18.495C-214.259,32.354 -147.033,62.924 -83.657,99.347C-40.358,124.64 -40.358,124.64 8.375,127.129C26.573,122.083 45.054,111.641 55.117,95.172C59.236,88.413 59.236,88.413 61,81C60.007,80.66 59.015,80.319 57.992,79.969C44.165,75.092 32.034,68.832 21,59C20.157,58.263 19.314,57.525 18.445,56.766C6.903,46.03 -0.354,31.873 -1.094,15.972C-1.133,13.876 -1.137,11.784 -1.125,9.688C-1.129,8.973 -1.133,8.258 -1.137,7.521C-1.127,2.254 -1.127,2.254 0,0Z" style="fill:rgb(72,129,185);fill-rule:nonzero;"/>
                </g>
                <g transform="matrix(1,0,0,1,417.317,490.218)">
                    <path d="M0,0C8.96,2.611 16.303,12.086 22.769,18.608C24.24,20.089 25.721,21.56 27.204,23.03C33.466,29.283 39.163,35.862 44.683,42.782C45.677,43.965 46.677,45.143 47.687,46.313C82.683,86.919 82.683,86.919 82.683,102.782C75.169,102.332 68.367,100.787 61.183,98.594C60.129,98.277 59.075,97.961 57.989,97.634C54.883,96.694 51.783,95.739 48.683,94.782C47.872,94.538 47.061,94.294 46.226,94.043C23.163,87.09 -0.014,76.871 -19.688,62.84C-21.452,61.597 -21.452,61.597 -24.317,60.782L-24.317,63.782C-23.198,64.197 -23.198,64.197 -22.056,64.622C-19.571,65.674 -17.687,66.784 -15.505,68.344C-5.435,75.203 5.433,81.114 16.683,85.782C17.383,86.074 18.084,86.366 18.806,86.667C33.111,92.604 47.441,97.938 62.444,101.825C63.126,102.002 63.807,102.179 64.509,102.362C67.949,103.255 71.392,104.13 74.842,104.979C76.101,105.299 77.359,105.62 78.655,105.95C79.792,106.231 80.929,106.512 82.101,106.802C82.953,107.125 83.805,107.449 84.683,107.782C85.688,110.797 85.786,112.824 85.745,115.969C85.736,116.87 85.727,117.771 85.718,118.7C85.7,119.73 85.7,119.73 85.683,120.782C65.816,121.346 46.282,113.063 27.683,106.782C26.839,106.501 25.995,106.22 25.126,105.93C9.004,100.511 -6.151,92.402 -21.317,84.782C-12.853,90.778 -4.032,95.594 5.308,100.094C6.343,100.597 7.379,101.1 8.446,101.619C14.536,104.505 20.622,106.905 27.053,108.924C29.496,109.721 31.825,110.639 34.183,111.657C51.027,118.469 68.969,122.048 86.683,125.782C86.825,134.353 84.873,140.832 83.73,144.26C83.568,151.793 65.202,148.504 55.853,147.468C32.484,144.457 9.856,138.662 -12.317,130.782L-12.317,128.782C-12.856,128.62 -13.395,128.459 -13.95,128.292C-19.924,126.413 -25.352,123.962 -30.88,121.032C-31.774,120.56 -32.668,120.088 -33.589,119.602C-49.861,110.864 -65.55,100.878 -80.317,89.782C-81.081,89.218 -81.844,88.655 -82.63,88.075C-105.127,71.078 -130.688,47.17 -140.317,19.782C-139.822,18.297 -139.822,18.297 -139.317,16.782C-138.489,17.368 -137.66,17.955 -136.806,18.559C-133.219,20.947 -129.459,22.656 -125.505,24.344C-124.799,24.656 -124.094,24.968 -123.367,25.289C-119.656,26.901 -116.159,28.118 -112.192,28.969C-109.19,29.889 -108.45,30.573 -106.728,33.274C-105.726,35.362 -104.762,37.469 -103.833,39.59C-99.629,48.442 -91.889,55.633 -85.317,62.782C-89.534,56.382 -93.875,50.078 -98.267,43.797C-103.317,36.37 -103.317,36.37 -103.317,32.782C-85.429,32.236 -85.429,32.236 -80.52,36.252C-77.697,39.8 -75.971,43.763 -74.224,47.917C-72.706,51.039 -70.717,53.276 -68.317,55.782C-66.832,56.277 -66.832,56.277 -65.317,56.782C-66.016,55.769 -66.715,54.755 -67.435,53.711C-68.354,52.36 -69.273,51.009 -70.192,49.657C-70.653,48.992 -71.113,48.326 -71.587,47.641C-74.192,43.79 -76.086,40.325 -77.317,35.782C-72.174,34.173 -67.229,33.254 -61.88,32.657C-61.148,32.57 -60.417,32.484 -59.663,32.395C-57.882,32.185 -56.1,31.983 -54.317,31.782C-53.895,32.509 -53.472,33.236 -53.036,33.985C-47.105,43.636 -38.832,53.065 -28.317,57.782C-33.147,51.968 -38.388,46.632 -43.785,41.351C-49.324,35.897 -49.324,35.897 -51.317,32.782L-51.317,30.782C-50.53,30.502 -49.742,30.222 -48.931,29.934C-41.506,27.202 -34.863,24.074 -27.997,20.137C-25.317,18.782 -25.317,18.782 -22.317,18.782C-21.021,20.407 -21.021,20.407 -19.567,22.782C-5.608,43.544 16.357,63.423 38.683,74.782L38.683,72.782C37.1,71.696 35.463,70.689 33.808,69.719C28.754,66.598 24.522,63.128 20.194,59.079C17.711,56.808 15.14,54.735 12.495,52.657C1.371,43.631 -8.624,33.157 -17.317,21.782C-18.207,20.736 -18.207,20.736 -19.114,19.668C-19.511,19.046 -19.908,18.423 -20.317,17.782C-19.094,14.113 -17.745,13.337 -14.692,11.032C-10.686,7.951 -7.258,4.779 -3.985,0.934C-2.317,-0.218 -2.317,-0.218 0,0Z" style="fill:rgb(247,248,249);fill-rule:nonzero;"/>
                </g>
                <g transform="matrix(1,0,0,1,232,484)">
                    <path d="M0,0C0.727,0.043 1.453,0.086 2.202,0.13C4.737,0.455 6.696,0.878 9,2C10.951,4.912 11.621,8.057 12.438,11.438C18.457,32.365 30.376,50.203 44,67C44.626,67.799 45.253,68.598 45.898,69.422C56.166,82.323 67.466,94.066 80.23,104.5C81.522,105.595 82.783,106.725 84.026,107.875C89.63,113.057 95.518,117.093 102.063,121C103.023,121.584 103.984,122.168 104.975,122.77C107.312,124.188 109.653,125.598 112,127C110.704,123.112 109.19,122.594 105.75,120.438C93.661,112.573 83.172,103.585 72.774,93.639C70.362,91.411 67.835,89.333 65.281,87.271C64.647,86.642 64.647,86.642 64,86L64,84L62,84C60.66,82.707 60.66,82.707 59.063,80.813C58.439,80.075 57.815,79.338 57.172,78.578C56.455,77.727 55.738,76.877 55,76C54.18,75.067 53.36,74.133 52.516,73.172C36.086,54.381 15.743,28.393 12,3C18.71,5.343 24.55,8.332 30.453,12.293C32.888,13.975 32.888,13.975 35.109,15.176C40.063,18.087 41.1,21.368 42.797,26.719C48.359,41.888 58.997,56.064 69.93,67.777C71.796,69.781 73.556,71.838 75.313,73.938C87.893,88.266 103.993,99.821 120,110C120.559,110.361 121.118,110.722 121.693,111.094C130.297,116.648 139.088,121.831 148,126.875C148.967,127.422 149.934,127.97 150.931,128.534C156.222,131.505 161.547,134.338 167,137L167,139C167.677,139.25 168.354,139.5 169.051,139.758C172.562,141.237 175.855,143.041 179.188,144.875C184.392,147.707 189.554,150.207 195.145,152.211C197,153 197,153 199,155C191.449,155.387 184.442,153.947 177.063,152.438C176.079,152.239 176.079,152.239 175.077,152.036C161.857,149.352 148.917,145.886 136,142C134.474,141.552 132.948,141.104 131.422,140.656C123.057,138.163 114.932,135.181 106.893,131.796C105.624,131.262 104.353,130.734 103.08,130.212C82.454,121.742 63.057,110.398 46,96C45.444,95.538 44.888,95.076 44.315,94.6C42.454,93.053 40.601,91.497 38.75,89.938C38.171,89.455 37.592,88.972 36.996,88.475C33.413,85.422 30.306,82.194 27.313,78.561C26.137,77.162 24.855,75.855 23.563,74.563C10.954,61.954 1.301,47.209 -6,31C-6.286,30.374 -6.572,29.749 -6.867,29.104C-15.864,9.313 -15.864,9.313 -14,2C-9.127,0.409 -5.188,-0.358 0,0Z" style="fill:rgb(246,247,249);fill-rule:nonzero;"/>
                </g>
                <g transform="matrix(1,0,0,1,730,546)">
                    <path d="M-422.007,-25.188L-424.848,-25.719C-430.382,-26.95 -435.311,-29.121 -440.438,-31.5L-443.154,-32.723C-449.722,-35.722 -449.722,-35.722 -452,-38C-445.791,-13.193 -421.241,10.591 -402,26L-399.633,27.965C-377.458,46.22 -313.098,78.251 -308.16,79.684C-295.201,83.426 -282.301,86.731 -269,89L-266.964,89.355C-259.646,90.597 -248.964,91.025 -244.938,91.375C-244.23,91.436 -243.501,91.609 -242.808,91.454C-241.035,91.059 -236.613,89.771 -234.302,89.003C-232.473,88.394 -229.709,88.609 -228.937,86.842C-227.554,83.675 -226.279,73.345 -226,70L-229.875,69.629C-261.907,66.037 -312.269,52.186 -335,28C-331.483,29.354 -328.14,30.888 -324.789,32.609C-308.229,41.064 -308.229,41.064 -291,48L-287.854,49.116C-268.125,56.055 -247.935,63.085 -227,65L-227.987,52.175C-264.442,44.54 -299.704,32.653 -331,12L-333.008,10.781C-334.688,9.75 -334.688,9.75 -337,8L-337,5C-333.759,5.639 -331.431,6.804 -328.641,8.555L-326.045,10.152L-323.25,11.875C-302.274,24.528 -279.793,33.78 -256.241,40.369C-253.857,41.04 -251.479,41.73 -249.102,42.422C-247.485,42.886 -245.867,43.35 -244.25,43.813L-241.975,44.477C-238.232,45.532 -234.897,46.269 -231,46C-236.779,33.994 -243.21,22.462 -250,11C-247.098,9.549 -244.708,10.036 -241.629,10.758C-236.424,13.217 -232.957,18.135 -229.304,22.468C-217.648,36.166 -201.968,45.148 -186,53C-186.639,53.7 -187.171,54.254 -187.692,54.717C-175.096,54.1 -104.525,60.91 -68.987,52.696C-68.994,52.034 -69.009,51.372 -69.031,50.711C-68.801,48.269 -68.801,48.269 -68,46C-64.849,43.442 -61.249,42.116 -57.5,40.625C-55.387,39.702 -53.277,38.769 -51.172,37.828L-47.998,36.416C-36.632,31.048 -26.436,23.216 -17,15C-15.689,13.873 -14.378,12.747 -13.066,11.621C-6.386,5.971 -6.386,5.971 0,0C0,9.122 -13.851,20.583 -20,27L-21.434,28.516C-29.024,36.516 -37.128,43.46 -46,50L-47.81,51.354C-68.723,66.884 -92.39,76.738 -116.813,85.25L-120.499,86.538C-132.058,90.499 -143.692,93.281 -155.688,95.563L-158.791,96.193C-179.027,100.033 -199.718,100.35 -220.25,100.25L-223.592,100.243C-245.593,100.186 -267.218,99.292 -289,96L-291.326,95.652C-293.01,95.398 -294.693,95.137 -296.375,94.875L-299.648,94.367L-302,94L-302,91L-304.457,90.117C-313.909,86.618 -370.297,54.557 -384,45L-385.783,43.775C-394.641,37.684 -402.957,31.132 -411,24L-412.669,22.522C-431.626,5.634 -451.332,-16.604 -458.762,-41.559C-460.479,-44.943 -462.621,-46.029 -465.875,-47.938L-467.604,-48.961C-473.256,-52.258 -479.093,-55.19 -485,-58C-476.194,-30.906 -460.552,-5.297 -440.643,15.081C-438.379,17.405 -437.044,18.869 -436,22L-434,22C-432.835,23.405 -431.673,24.814 -430.531,26.238C-428.327,28.774 -425.824,30.869 -423.266,33.039C-421.702,34.393 -420.172,35.787 -418.672,37.211C-409.489,45.915 -399.219,53.542 -388.457,60.195L-386,62L-386,65C-390.99,63.317 -395.131,60.493 -399.5,57.625L-401.762,56.164C-409.616,51.049 -409.616,51.049 -413,48L-413,46L-414.703,45.262C-417.44,43.758 -419.458,41.933 -421.75,39.813C-424.702,37.097 -427.664,34.436 -430.75,31.875C-456.32,9.58 -479.683,-23.116 -489,-56L-489,-60C-491.52,-60.224 -494.04,-60.429 -496.563,-60.625L-498.697,-60.82C-504.343,-61.237 -508.862,-60.569 -514,-58L-514,-65C-502.821,-70.324 -488.082,-67.006 -477.453,-61.855C-469.239,-57.71 -461.449,-53.151 -453.871,-47.938C-439.782,-38.429 -424.374,-31.998 -408.253,-29.202C-386.662,-25.987 -365.835,-28.589 -345.919,-37.684C-336.823,-42.158 -328.482,-48.051 -321.006,-55.407C-316.518,-59.761 -316.518,-59.761 -313,-60L-311,-59L-312,-55L-313.73,-54.766C-316.761,-53.743 -318.14,-52.08 -320.313,-49.75C-323.978,-45.945 -327.597,-42.904 -332,-40C-330.623,-35.897 -328.754,-33.34 -325.813,-30.188C-323.019,-27.194 -320.276,-24.182 -317.625,-21.063C-309.82,-12.142 -301.294,-4.338 -292,3L-289.402,5.125C-284.134,9.424 -278.733,13.344 -273,17L-274,20C-284.724,14.611 -293.907,7.214 -302.703,-0.887C-304.765,-2.786 -306.868,-4.617 -309,-6.438C-319.38,-15.496 -328.636,-25.347 -336,-37L-338.895,-35.391C-357.822,-25 -357.822,-25 -364,-25C-358.937,-17.65 -352.732,-11.593 -346.336,-5.41L-344.254,-3.379L-342.358,-1.553C-341,0 -341,0 -341,2C-350.225,0.729 -358.825,-10.719 -364.355,-17.555C-365.871,-19.808 -366.587,-21.346 -367,-24L-370.289,-23.379C-371.734,-23.107 -373.18,-22.835 -374.625,-22.563L-376.785,-22.154C-380.85,-21.39 -384.917,-20.663 -389,-20C-387.66,-15.307 -385.722,-11.808 -382.938,-7.813C-379.092,-2.295 -379.097,-2.292 -378,1C-381.167,0.719 -382.035,-0.039 -384.219,-2.441L-386.5,-5.563L-388.781,-8.629C-390.537,-11.095 -391.603,-13.505 -392.715,-16.313C-393.892,-18.748 -394.427,-19.763 -396.952,-20.806C-399.343,-21.204 -401.641,-21.326 -404.063,-21.438C-405.68,-21.512 -407.294,-21.641 -408.91,-21.746L-411.071,-21.83C-413,-22 -413,-22 -416,-23C-412.674,-14.879 -407.626,-8.111 -402.37,-1.159L-400.668,1.121L-399.114,3.166C-398,5 -398,5 -398,8C-407.699,-0.968 -417.71,-12.269 -422,-25C-422.002,-25.064 -422.005,-25.126 -422.007,-25.188Z" style="fill:rgb(167,189,206);"/>
                </g>
                <g transform="matrix(1,0,0,1,337.672,355.739)">
                    <path d="M0,0C3.359,0.011 6.717,0 10.076,-0.013C27.492,-0.024 44.655,0.979 61.77,4.362C62.498,4.506 63.227,4.649 63.977,4.797C64.753,4.95 65.529,5.103 66.328,5.261C67.183,5.424 68.037,5.588 68.918,5.756C141.069,19.615 208.295,50.185 271.672,86.607C314.97,111.901 314.97,111.901 363.703,114.39C382.91,109.064 401.629,97.874 411.735,80.222C413.702,76.617 415.542,72.958 417.328,69.261L419.328,69.261C420.058,79.106 416.539,86.542 410.293,94.042C409.645,94.774 408.996,95.506 408.328,96.261C407.67,97.014 407.011,97.766 406.332,98.542C392.641,113.213 372.073,121.873 352.115,122.656C324.16,123.159 295.396,108.366 272.219,93.679C269.11,91.714 265.97,90.02 262.641,88.448C258.479,86.421 254.675,84.205 250.828,81.636C241.469,75.768 231.142,71.852 220.972,67.618C214.36,64.865 207.782,62.031 201.203,59.198C189.114,54.016 177.019,48.85 164.89,43.762C162.401,42.713 159.914,41.658 157.431,40.596C129.901,28.824 101.795,18.082 72.328,12.261C71.427,12.08 70.525,11.899 69.596,11.712C16.779,1.295 -40.898,2.361 -88.672,29.261C-89.999,29.939 -91.329,30.613 -92.672,31.261C-83.836,21.511 -72.427,15.705 -60.672,10.261C-59.088,9.514 -59.088,9.514 -57.472,8.753C-50.074,5.454 -42.638,3.638 -34.672,2.261C-33.861,2.09 -33.051,1.919 -32.216,1.744C-21.545,-0.264 -10.821,-0.041 0,0Z" style="fill:rgb(236,243,247);fill-rule:nonzero;"/>
                </g>
                <g transform="matrix(1,0,0,1,232,484)">
                    <path d="M0,0C0.727,0.043 1.453,0.086 2.202,0.13C4.737,0.455 6.696,0.878 9,2C10.951,4.912 11.621,8.057 12.438,11.438C18.457,32.365 30.376,50.203 44,67C44.626,67.799 45.253,68.598 45.898,69.422C56.166,82.323 67.466,94.066 80.23,104.5C81.522,105.595 82.783,106.725 84.026,107.875C89.63,113.057 95.518,117.093 102.063,121C103.023,121.584 103.984,122.168 104.975,122.77C107.312,124.188 109.653,125.598 112,127C112.33,126.34 112.66,125.68 113,125L113,127C113.646,127.226 114.292,127.451 114.957,127.684C119.081,129.468 122.838,131.754 126.688,134.063C128.212,134.971 129.737,135.878 131.262,136.785C131.932,137.186 132.602,137.587 133.292,138C134.504,138.71 135.744,139.372 137,140C136.67,140.66 136.34,141.32 136,142C126.089,139.057 116.428,135.81 106.893,131.796C105.624,131.262 104.353,130.734 103.08,130.212C82.454,121.742 63.057,110.398 46,96C45.444,95.538 44.888,95.076 44.315,94.6C42.454,93.053 40.601,91.497 38.75,89.938C38.171,89.455 37.592,88.972 36.996,88.475C33.413,85.422 30.306,82.194 27.313,78.561C26.137,77.162 24.855,75.855 23.563,74.563C10.954,61.954 1.301,47.209 -6,31C-6.286,30.374 -6.572,29.749 -6.867,29.104C-15.864,9.313 -15.864,9.313 -14,2C-9.127,0.409 -5.188,-0.358 0,0Z" style="fill:rgb(244,245,247);fill-rule:nonzero;"/>
                </g>
                <g transform="matrix(1,0,0,1,865,364)">
                    <path d="M0,0C1.677,4.092 0.28,7.722 -0.938,11.75C-1.161,12.496 -1.385,13.241 -1.616,14.01C-7.631,33.062 -19.021,50.31 -36.469,60.711C-51.689,68.462 -73.488,75.021 -90.426,69.98C-91.275,69.657 -92.125,69.333 -93,69C-87.167,62.255 -80.017,60.87 -71.524,59.315C-54.832,56.258 -42.137,51.116 -29,40C-28.273,39.386 -27.546,38.773 -26.797,38.141C-17.846,29.894 -11.977,18.514 -6.65,7.711C-4.318,3.106 -4.318,3.106 -1,2C-0.67,1.34 -0.34,0.68 0,0Z" style="fill:rgb(50,102,161);fill-rule:nonzero;"/>
                </g>
                <g transform="matrix(1,0,0,1,562,523)">
                    <path d="M0,0C24.436,7.28 48.213,25.862 66.73,42.914C68.828,44.842 70.964,46.708 73.125,48.563C75.867,50.966 78.558,53.411 81.188,55.938C81.8,56.524 82.412,57.111 83.043,57.715C84.823,59.793 86.191,61.821 87.622,64.143C88.069,64.865 88.515,65.587 88.975,66.33C89.313,66.881 89.652,67.432 90,68C84.027,68.05 78.054,68.086 72.08,68.11C70.055,68.12 68.031,68.133 66.006,68.151C53.816,68.253 42.049,67.955 30,66C29.06,65.854 28.121,65.708 27.152,65.557C12.399,63.126 -0.928,58.831 -14.188,51.938C-14.8,51.621 -15.412,51.305 -16.042,50.979C-20.078,48.784 -22.925,46.341 -26,43C-23.324,44.054 -20.674,45.143 -18.039,46.297C-10.273,49.602 -2.481,52.117 5.688,54.25C7.093,54.619 7.093,54.619 8.527,54.995C20.098,57.924 31.194,59.271 43.125,59.5C70.693,60.231 70.693,60.231 79,63C79,62.34 70.802,54.25 69.707,52.871C66.721,49.598 63.195,46.968 59.738,44.211C57.535,42.432 30.237,21.789 18.424,13.96C4.869,4.957 4.869,4.957 0,1L0,0Z" style="fill:rgb(238,245,248);fill-rule:nonzero;"/>
                </g>
                <g transform="matrix(1,0,0,1,720,538)">
                    <path d="M0,0C0,3 0,3 -1.949,5.348C-19.01,22.263 -39.87,36.794 -63,44C-63.459,43.511 -63.917,43.022 -64.389,42.519C-66.488,40.283 -68.588,38.048 -70.688,35.813C-71.409,35.044 -72.13,34.275 -72.873,33.482C-76.527,29.595 -80.198,25.742 -84,22C-83.357,21.98 -82.714,21.96 -82.051,21.94C-56.664,21.121 -19.534,19.534 0,0Z" style="fill:rgb(49,100,161);fill-rule:nonzero;"/>
                </g>
                <g transform="matrix(1,0,0,1,409.203,431.852)">
                    <path d="M0,0C8.012,4.496 13.004,12.563 15.797,21.148C16.172,24.586 16.172,24.586 15.797,27.148C15.137,27.808 14.477,28.468 13.797,29.148C9.679,28.891 6.29,27.972 2.422,26.586C-5.697,24.025 -15.33,24.333 -23.656,25.727C-24.497,25.866 -25.337,26.005 -26.203,26.148C-27.203,25.148 -27.203,25.148 -27.453,22.031C-26.99,14.838 -23.26,7.401 -18.309,2.133C-12.821,-1.757 -6.264,-2.421 0,0Z" style="fill:rgb(19,39,96);fill-rule:nonzero;"/>
                </g>
                <g transform="matrix(1,0,0,1,693,343)">
                    <path d="M0,0C0.652,0.41 1.305,0.82 1.977,1.242C2.851,1.781 3.725,2.32 4.625,2.875C5.484,3.409 6.342,3.942 7.227,4.492C12.309,7.255 16.784,8.163 22.471,8.479C37.798,9.411 50.674,15.403 61,27C63.022,29.632 64.484,32.02 66,35C65.505,35.99 65.505,35.99 65,37C64.524,36.527 64.049,36.054 63.559,35.566C51.134,23.828 37.607,17.764 20.875,14.688C13.845,13.285 8.703,10.248 3,6C6.23,26.82 11.09,43.568 25,60C25.66,60.33 26.32,60.66 27,61C26.67,61.66 26.34,62.32 26,63C23.305,60.697 20.649,58.355 18,56C17.403,55.495 16.806,54.989 16.191,54.469C5.891,45.144 0.598,31.523 -1,18C-1.129,15.227 -1.14,12.463 -1.125,9.688C-1.129,8.973 -1.133,8.258 -1.137,7.521C-1.127,2.254 -1.127,2.254 0,0Z" style="fill:rgb(234,242,248);fill-rule:nonzero;"/>
                </g>
                <g transform="matrix(1,0,0,1,451,447)">
                    <path d="M0,0C3.161,1.37 3.993,1.989 6,5C6.195,7.48 6.195,7.48 6.125,10.188C6.107,11.089 6.089,11.99 6.07,12.918C6.036,13.949 6.036,13.949 6,15C5.01,15.495 5.01,15.495 4,16C3.951,15.408 3.902,14.817 3.852,14.207C3.262,7.89 3.262,7.89 1,2C0.34,1.67 -0.32,1.34 -1,1C-0.67,0.67 -0.34,0.34 0,0Z" style="fill:rgb(10,44,94);fill-rule:nonzero;"/>
                </g>
                <g transform="matrix(1,0,0,1,690.238,330.699)">
                    <path d="M0,0C3.627,0.395 5.145,1.814 7.949,4.113C15.586,9.871 22.199,11.173 31.574,12.176C47.955,13.966 61.122,21.805 71.762,34.301C73.707,37.085 75.512,39.905 77.254,42.82C78.639,45.099 80.125,47.199 81.762,49.301C82.298,48.816 82.834,48.331 83.387,47.832C102.075,31.849 124.856,27.748 148.512,24.738C151.736,24.325 154.96,23.907 158.184,23.484C158.945,23.385 159.706,23.285 160.49,23.182C165.329,22.534 170.105,21.737 174.874,20.677C177.559,20.142 180.041,20.029 182.762,20.301C185.539,23.078 185.061,24.794 185.074,28.676C184.7,50.333 174.139,73.051 158.961,88.324C150.197,96.705 140.083,102.107 128.762,106.301C127.277,106.869 127.277,106.869 125.762,107.449C114.253,111.435 100.961,113.48 88.762,113.301C88.74,114.326 88.74,114.326 88.719,115.371C86.232,167.935 55.922,222.08 17.762,257.301C14.176,260.409 10.491,263.368 6.762,266.301C5.787,267.092 4.813,267.884 3.809,268.699C-19.953,287.625 -48.422,300.694 -77.3,309.689C-79.009,310.228 -80.706,310.801 -82.402,311.379C-145.026,332.198 -221.334,330.427 -284.774,313.825C-288.993,312.732 -292.847,311.762 -297.238,312.301C-299.123,313.541 -299.123,313.541 -300.488,315.301C-301.373,316.329 -302.285,317.336 -303.238,318.301L-305.238,318.301L-305.238,320.301C-307.283,322.098 -309.332,323.771 -311.488,325.426C-312.119,325.914 -312.75,326.403 -313.4,326.906C-333.125,342.023 -333.125,342.023 -346.27,341.73C-352.135,340.882 -355.294,337.74 -358.883,333.238C-365.46,323.382 -371.007,307.185 -369.977,295.277C-369.776,291.747 -369.843,289.569 -371.238,286.301C-375.079,283.507 -379.038,281.619 -383.34,279.645C-388.405,277.315 -392.948,274.433 -397.551,271.301C-398.305,270.789 -399.06,270.278 -399.838,269.751C-406.117,265.453 -412.23,260.971 -418.238,256.301C-419.05,255.694 -419.863,255.086 -420.699,254.461C-450.089,231.967 -476.873,194.234 -483.238,157.301C-483.412,155.158 -483.542,153.012 -483.613,150.863C-483.954,145.54 -485.114,141.523 -487.25,136.676C-491.604,126.213 -492.137,112.4 -488.426,101.711C-486.473,97.748 -483.886,94.319 -481.176,90.844C-477.807,86.423 -475.476,81.755 -473.113,76.738C-460.186,50.398 -435.559,33.025 -408.447,23.41C-391.914,17.786 -375.545,15.135 -358.09,15.168C-356.388,15.167 -356.388,15.167 -354.652,15.165C-352.271,15.164 -349.889,15.166 -347.507,15.17C-343.854,15.176 -340.2,15.17 -336.547,15.164C-334.228,15.165 -331.909,15.166 -329.59,15.168C-327.949,15.165 -327.949,15.165 -326.276,15.162C-325.264,15.165 -324.252,15.168 -323.209,15.171C-322.32,15.172 -321.43,15.173 -320.513,15.174C-318.238,15.301 -318.238,15.301 -315.238,16.301C-313.743,16.491 -312.244,16.643 -310.742,16.773C-284.772,19.295 -258.989,25.113 -234.227,33.313C-230.841,34.432 -227.446,35.52 -224.051,36.609C-207.84,41.845 -191.927,47.644 -176.238,54.301C-174.645,54.977 -174.645,54.977 -173.02,55.667C-147.557,66.56 -122.966,78.927 -98.971,92.742C-90.804,97.401 -82.513,101.839 -74.238,106.301C-73.419,106.746 -72.599,107.19 -71.755,107.648C-56.276,116.035 -40.284,124.598 -23.238,129.301C-22.475,129.524 -21.712,129.747 -20.926,129.977C-8.805,132.986 5.021,132.368 16.762,128.301C17.732,127.972 18.703,127.643 19.703,127.305C33.233,122.207 43.212,114.505 50.762,102.301C51.092,101.311 51.422,100.321 51.762,99.301C50.755,98.886 49.748,98.471 48.711,98.043C25.577,88.075 5.683,72.269 -3.844,48.438C-8.839,34.596 -10.336,16.651 -4.211,2.996C-2.7,0.363 -2.7,0.363 0,0ZM2.762,12.301C-1.444,20.712 2.119,36.006 4.762,44.301C8.531,53.8 13.456,61.2 20.762,68.301C21.511,69.059 22.26,69.817 23.031,70.598C34.585,81.71 48.705,88.282 63.762,93.301C59.481,109.184 47.499,121.731 33.762,130.301C28.595,133.045 23.228,135.235 17.762,137.301C16.85,137.663 15.939,138.025 15,138.398C-10.714,147.078 -38.36,133.866 -60.988,122.676C-70.313,117.989 -79.325,112.849 -88.297,107.522C-97.866,101.861 -107.679,96.744 -117.573,91.678C-120.082,90.382 -122.573,89.058 -125.059,87.719C-154.559,71.834 -185.757,59.636 -217.238,48.301C-217.947,48.041 -218.657,47.781 -219.387,47.514C-238.876,40.396 -259.408,35.752 -279.676,31.426C-280.349,31.281 -281.023,31.135 -281.716,30.986C-291.176,28.959 -300.624,27.384 -310.238,26.301C-311.695,26.135 -311.695,26.135 -313.18,25.966C-323.775,24.968 -334.443,25.079 -345.075,25.061C-348.467,25.051 -351.858,25.02 -355.25,24.988C-367.621,24.929 -379.152,25.565 -391.238,28.301C-392.86,28.635 -392.86,28.635 -394.514,28.976C-419.472,34.241 -445.675,50.18 -460.27,71.23C-461.991,73.89 -463.656,76.557 -465.238,79.301C-465.652,80.005 -466.066,80.708 -466.492,81.434C-467.54,83.472 -467.54,83.472 -466.238,86.301C-465.139,86.278 -464.039,86.254 -462.906,86.23C-427.238,85.693 -400.516,105.643 -373.863,127.238C-362.608,136.338 -350.943,145.31 -338.238,152.301C-358.229,146.589 -375.928,133.912 -392.973,122.427C-427.566,98.529 -427.566,98.529 -467.988,93.988C-473.522,96.223 -476.849,99.02 -479.613,104.238C-484.241,116.072 -480.521,128.009 -476.238,139.301C-475.584,140.64 -474.92,141.975 -474.238,143.301C-472.26,143.214 -472.26,143.214 -470.242,143.125C-447.044,142.412 -431.77,149.767 -412.995,162.575C-406.096,167.202 -398.774,170.836 -391.238,174.301C-390.335,174.722 -389.431,175.144 -388.5,175.578C-366.374,185.175 -338.001,185.283 -315.676,176.613C-303.661,171.657 -292.007,164.924 -282.238,156.301L-282.238,154.301C-282.898,153.971 -283.558,153.641 -284.238,153.301C-279.613,150.892 -276.303,149.737 -271.102,150.656C-267.915,151.758 -266.251,153.679 -264.238,156.301C-263.426,158.613 -263.426,158.613 -263.238,160.301C-263.733,159.847 -264.228,159.393 -264.738,158.926C-268.139,156.716 -271.098,155.119 -275.238,155.301C-278.356,157.154 -280.695,159.739 -283.238,162.301C-304.606,180.916 -331.26,189.339 -359.425,187.576C-379.89,185.576 -398.171,177.946 -415.199,166.691C-432.623,155.183 -447.704,146.627 -469.238,148.301C-472.077,149.215 -472.077,149.215 -474.238,150.301C-475.41,178.828 -451.642,208.826 -434.238,229.301C-432.593,230.989 -430.925,232.654 -429.238,234.301C-428.748,234.813 -428.259,235.324 -427.754,235.852C-422.634,241.154 -417.003,245.719 -411.238,250.301C-410.283,251.085 -409.328,251.868 -408.344,252.676C-399.641,259.647 -390.325,265.366 -380.661,270.911C-379.162,271.771 -377.667,272.637 -376.179,273.515C-334.655,297.938 -283.027,307.387 -235.801,312.988C-234.795,313.108 -233.79,313.227 -232.754,313.351C-216.694,315.147 -200.687,315.487 -184.54,315.486C-181.271,315.488 -178.003,315.506 -174.734,315.525C-155.255,315.579 -135.64,314.871 -116.488,311.051C-115.367,310.833 -114.245,310.616 -113.09,310.391C-102.608,308.29 -92.397,305.622 -82.238,302.301C-81.175,301.954 -80.112,301.608 -79.017,301.25C-30.536,285.201 10.642,258.974 40.762,217.301C40.432,216.641 40.102,215.981 39.762,215.301C38.545,216.444 38.545,216.444 37.305,217.609C21.033,232.82 3.316,247.64 -17.555,256.105C-21.308,257.637 -24.824,259.093 -28.238,261.301C-29.308,263.895 -29.387,265.432 -28.961,268.188C-29.238,270.301 -29.238,270.301 -31.727,272.438C-35.612,274.499 -39.091,275.53 -43.363,276.426C-44.105,276.593 -44.847,276.761 -45.612,276.934C-51.042,278.133 -84.179,278.102 -84.862,278.087C-127.277,277.05 -155.982,270.424 -187.238,240.301C-188.008,239.606 -188.777,238.911 -189.57,238.195C-203.563,225.16 -219.366,202.851 -220.402,183.188C-220.422,180.549 -220.376,177.936 -220.238,175.301C-219.563,176.72 -219.563,176.72 -218.875,178.168C-200.201,216.812 -173.937,248.029 -132.488,262.488C-131.823,262.727 -131.157,262.965 -130.471,263.21C-115.912,268.054 -101.245,268.787 -86.029,268.692C-83.006,268.676 -79.984,268.692 -76.961,268.711C-63.815,268.723 -51.192,267.517 -38.238,265.301C-38.012,257.733 -41.267,254.749 -46.238,249.301C-62.185,232.5 -80.466,218.316 -100.238,206.301C-101.112,205.764 -101.112,205.764 -102.003,205.216C-123.187,192.325 -146.558,182.222 -169.238,172.301C-161.787,171.915 -155.715,173.241 -148.613,175.426C-147.55,175.747 -146.487,176.068 -145.391,176.399C-117.034,185.117 -92.267,200.002 -68.891,218.035C-67.541,219.069 -66.173,220.081 -64.801,221.086C-53.178,229.693 -42.572,240.281 -33.238,251.301C-11.226,243.683 8.368,231.384 24.964,215.059C26.992,213.075 29.051,211.127 31.109,209.176C51.051,190.036 64.832,168.441 73.762,142.301C74.328,140.785 74.328,140.785 74.906,139.238C78.877,128.293 80.728,116.581 81.551,104.988C81.762,103.301 81.762,103.301 82.762,102.301C84.43,102.625 86.096,102.96 87.762,103.301C109.504,104.99 131.81,99.119 148.762,85.301C149.598,84.669 150.435,84.038 151.297,83.387C164.672,72.068 172.135,53.007 175.762,36.301C175.931,32.972 175.931,32.972 175.762,30.301C124.053,35.131 124.053,35.131 81.762,62.301C80.101,63.973 78.436,65.642 76.762,67.301C76.559,66.462 76.559,66.462 76.352,65.605C72.324,50.606 64.944,36.945 51.311,28.794C48.503,27.201 45.664,25.715 42.762,24.301C41.988,23.918 41.215,23.535 40.418,23.141C36.525,21.91 32.631,21.737 28.574,21.426C18.643,20.519 10.857,18.266 2.762,12.301Z" style="fill:rgb(21,39,94);fill-rule:nonzero;"/>
                </g>
                <g transform="matrix(1,0,0,1,2.42478,0.951632)">
                    <ellipse cx="395.218" cy="436.162" rx="4.492" ry="4.303" style="fill:white;"/>
                </g>
                <g transform="matrix(1,0,0,1,329,621)">
                    <path d="M0,0C1.938,0.57 1.938,0.57 4,2C4.688,5.055 4.688,5.055 5,8.875C6.335,21.469 10.558,30.812 18,41C16.02,41.495 16.02,41.495 14,42C8.533,36.503 5.314,31.392 3,24C2.551,22.573 2.551,22.573 2.094,21.117C0.082,13.984 -0.354,7.386 0,0Z" style="fill:rgb(222,230,241);fill-rule:nonzero;"/>
                </g>
            </g>
        </g>
    </g>
</svg>
